<?xml version="1.0" encoding="UTF-8" standalone="no"?>
<!-- Created with Inkscape (http://www.inkscape.org/) -->

<svg
   xmlns:dc="http://purl.org/dc/elements/1.1/"
   xmlns:cc="http://creativecommons.org/ns#"
   xmlns:rdf="http://www.w3.org/1999/02/22-rdf-syntax-ns#"
   xmlns:svg="http://www.w3.org/2000/svg"
   xmlns="http://www.w3.org/2000/svg"
   xmlns:sodipodi="http://sodipodi.sourceforge.net/DTD/sodipodi-0.dtd"
   xmlns:inkscape="http://www.inkscape.org/namespaces/inkscape"
   width="169.33333mm"
   height="167.35104mm"
   viewBox="0 0 169.33333 167.35104"
   version="1.1"
   id="svg296"
   inkscape:version="0.92.4 (5da689c313, 2019-01-14)"
   sodipodi:docname="cpu_2.svg">
  <defs
     id="defs290" />
  <sodipodi:namedview
     id="base"
     pagecolor="#ffffff"
     bordercolor="#666666"
     borderopacity="1.0"
     inkscape:pageopacity="0.0"
     inkscape:pageshadow="2"
     inkscape:zoom="0.7"
     inkscape:cx="-92.327364"
     inkscape:cy="793.58719"
     inkscape:document-units="mm"
     inkscape:current-layer="layer1"
     showgrid="false"
     fit-margin-top="0"
     fit-margin-left="0"
     fit-margin-right="0"
     fit-margin-bottom="0"
     inkscape:window-width="1920"
     inkscape:window-height="997"
     inkscape:window-x="0"
     inkscape:window-y="0"
     inkscape:window-maximized="1" />
  <metadata
     id="metadata293">
    <rdf:RDF>
      <cc:Work
         rdf:about="">
        <dc:format>image/svg+xml</dc:format>
        <dc:type
           rdf:resource="http://purl.org/dc/dcmitype/StillImage" />
        <dc:title></dc:title>
      </cc:Work>
    </rdf:RDF>
  </metadata>
  <g
     inkscape:label="Layer 1"
     inkscape:groupmode="layer"
     id="layer1"
     transform="translate(-15.19298,-61.781961)">
    <path
       inkscape:connector-curvature="0"
       id="path311"
       d="m 19.72463,228.74246 c -1.56949,-0.55946 -2.86339,-1.75553 -3.7379,-3.45529 l -0.79375,-1.5428 V 145.409 c 0,-72.285909 0.0338,-78.409739 0.43732,-79.298339 0.64343,-1.41686 2.18436,-3.00163 3.60534,-3.7079 l 1.24901,-0.6208 h 79.375 c 75.43117,0 79.42459,0.0233 80.37308,0.46903 1.5395,0.72347 2.97648,2.17366 3.66664,3.70037 l 0.62694,1.38685 v 78.184369 78.18437 l -0.74161,1.51022 c -0.422,0.85935 -1.18139,1.85853 -1.76204,2.31841 -2.17436,1.72213 3.51732,1.59533 -71.61294,1.59533 H 42.04819 v -2.45748 c 0,-2.02295 -0.10526,-2.66584 -0.59531,-3.63588 -1.01691,-2.01295 -3.14991,-2.92987 -5.8676,-2.52233 -1.59254,0.23881 -2.8125,1.11174 -3.52511,2.52233 -0.49005,0.97004 -0.59531,1.61293 -0.59531,3.63588 v 2.45748 l -5.35781,-0.0116 c -3.85935,-0.008 -5.64437,-0.11376 -6.38242,-0.37684 z"
       style="fill:#63b448;stroke-width:0.26458332" />
    <g
       id="g4187"
       transform="matrix(0.80823024,0,0,0.76128568,172.29466,97.510655)">
      <path
         style="opacity:1;fill:#2694af;fill-opacity:1"
         inkscape:connector-curvature="0"
         id="path4185"
         d="m 172.22,61 c 0.19,0 0.34,0.15 0.34,0.34 0,0.08 0,-0.04 0,0.03 0,0.19 -0.15,0.35 -0.34,0.35 -0.48,0 -1.57,0 -2.05,0 -0.19,0 -0.34,-0.16 -0.34,-0.35 0,-0.07 0,0.05 0,-0.03 0,-0.19 0.15,-0.34 0.34,-0.34 0.48,0 1.57,0 2.05,0 z" />
    </g>
    <g
       id="g4199"
       transform="matrix(0.80823024,0,0,0.76128568,-46.86635,35.504128)">
      <path
         style="opacity:1;fill:#f5f5f5;fill-opacity:1"
         inkscape:connector-curvature="0"
         id="path4193"
         d="m 260.27,59.49 c 5.41,0 9.8,4.39 9.8,9.8 0,30.93 0,113.91 0,144.84 0,5.42 -4.39,9.8 -9.8,9.8 -33.47,0 -124.07,0 -157.54,0 -5.41,0 -9.8,-4.38 -9.8,-9.8 0,-30.93 0,-113.91 0,-144.84 0,-5.41 4.39,-9.8 9.8,-9.8 33.47,0 124.07,0 157.54,0 z" />
      <g
         id="g4197">
        <path
           style="opacity:1;fill-opacity:0;stroke:#5a5a5a;stroke-width:5;stroke-opacity:1"
           inkscape:connector-curvature="0"
           id="path4195"
           d="m 260.27,59.49 c 5.41,0 9.8,4.39 9.8,9.8 0,30.93 0,113.91 0,144.84 0,5.42 -4.39,9.8 -9.8,9.8 -33.47,0 -124.07,0 -157.54,0 -5.41,0 -9.8,-4.38 -9.8,-9.8 0,-30.93 0,-113.91 0,-144.84 0,-5.41 4.39,-9.8 9.8,-9.8 33.47,0 124.07,0 157.54,0 z" />
      </g>
    </g>
    <g
       id="g4207"
       transform="matrix(0.80823024,0,0,0.76128568,-44.401371,32.83143)">
      <path
         style="opacity:1;fill:#64b549;fill-opacity:1"
         inkscape:connector-curvature="0"
         id="path4201"
         d="m 212.11,213.59 c 3.48,0 6.31,2.83 6.31,6.31 0,3.78 0,8.83 0,12.61 0,3.48 -2.83,6.31 -6.31,6.31 -14.71,0 -52.53,0 -67.24,0 -3.49,0 -6.31,-2.83 -6.31,-6.31 0,-3.78 0,-8.83 0,-12.61 0,-3.48 2.82,-6.31 6.31,-6.31 14.71,0 52.53,0 67.24,0 z" />
      <g
         id="g4205">
        <path
           style="opacity:1;fill-opacity:0;stroke:#5a5a5a;stroke-width:5;stroke-opacity:1"
           inkscape:connector-curvature="0"
           id="path4203"
           d="m 212.11,213.59 c 3.48,0 6.31,2.83 6.31,6.31 0,3.78 0,8.83 0,12.61 0,3.48 -2.83,6.31 -6.31,6.31 -14.71,0 -52.53,0 -67.24,0 -3.49,0 -6.31,-2.83 -6.31,-6.31 0,-3.78 0,-8.83 0,-12.61 0,-3.48 2.82,-6.31 6.31,-6.31 14.71,0 52.53,0 67.24,0 z" />
      </g>
    </g>
    <g
       id="g4219"
       transform="matrix(0.80823024,0,0,0.76128568,-45.797277,39.049548)">
      <path
         style="opacity:1;fill:#000000;fill-opacity:1"
         inkscape:connector-curvature="0"
         id="path4213"
         d="m 203.49,143.53 c -4.51,-4.48 -11.25,-5.35 -16.68,-2.69 -1.38,-1.38 -8.32,-8.28 -20.81,-20.7 v -12.05 l -25,-18.64 -12.5,12.43 18.75,24.84 h 12.12 c 12.5,12.42 19.44,19.32 20.82,20.7 -2.65,5.39 -1.79,12.09 2.72,16.57 2.29,2.28 20.58,20.46 22.87,22.74 2.85,2.83 7.46,2.83 10.29,0 1.03,-1.03 9.26,-9.21 10.29,-10.23 2.84,-2.84 2.84,-7.42 0,-10.23 -4.57,-4.55 -20.58,-20.46 -22.87,-22.74 z m 4.42,-4.38 c 0.38,0.37 3.41,3.39 3.79,3.76 3.08,-1.34 6.01,-3.2 8.55,-5.72 7.25,-7.21 9.71,-17.34 7.4,-26.54 -0.43,-1.75 -2.63,-2.35 -3.92,-1.07 -0.97,0.97 -5.82,5.78 -14.53,14.45 l -13.26,-2.2 -2.21,-13.18 c 8.72,-8.67 13.56,-13.48 14.53,-14.44 1.29,-1.28 0.66,-3.48 -1.11,-3.92 -9.26,-2.27 -19.46,0.17 -26.68,7.35 -5.57,5.54 -8.19,12.84 -8.05,20.11 1.6,1.6 14.43,14.35 16.04,15.94 1.58,-0.37 3.22,-0.56 4.82,-0.56 5.53,0 10.72,2.13 14.63,6.02 z m -46,-1.11 c -17.85,17.76 -27.78,27.63 -29.76,29.6 -4.88,4.86 -4.88,12.72 0,17.57 4.88,4.86 12.79,4.86 17.67,0 2.42,-2.4 21.73,-21.59 24.14,-23.99 -1.48,-3.86 -1.93,-8.08 -0.97,-12.17 -1.48,-1.47 -5.17,-5.14 -11.08,-11.01 z m -25.6,38.38 c 0,-2.58 2.09,-4.66 4.69,-4.66 2.59,0 4.68,2.08 4.68,4.66 0,2.56 -2.09,4.66 -4.68,4.66 -2.58,0 -4.69,-2.1 -4.69,-4.66 z" />
      <g
         id="g4217">
        <path
           style="opacity:1;fill-opacity:0;stroke:#000000;stroke-width:1;stroke-opacity:0"
           inkscape:connector-curvature="0"
           id="path4215"
           d="m 203.49,143.53 c -4.51,-4.48 -11.25,-5.35 -16.68,-2.69 -1.38,-1.38 -8.32,-8.28 -20.81,-20.7 v -12.05 l -25,-18.64 -12.5,12.43 18.75,24.84 h 12.12 c 12.5,12.42 19.44,19.32 20.82,20.7 -2.65,5.39 -1.79,12.09 2.72,16.57 2.29,2.28 20.58,20.46 22.87,22.74 2.85,2.83 7.46,2.83 10.29,0 1.03,-1.03 9.26,-9.21 10.29,-10.23 2.84,-2.84 2.84,-7.42 0,-10.23 -4.57,-4.55 -20.58,-20.46 -22.87,-22.74 z m 4.42,-4.38 c 0.38,0.37 3.41,3.39 3.79,3.76 3.08,-1.34 6.01,-3.2 8.55,-5.72 7.25,-7.21 9.71,-17.34 7.4,-26.54 -0.43,-1.75 -2.63,-2.35 -3.92,-1.07 -0.97,0.97 -5.82,5.78 -14.53,14.45 l -13.26,-2.2 -2.21,-13.18 c 8.72,-8.67 13.56,-13.48 14.53,-14.44 1.29,-1.28 0.66,-3.48 -1.11,-3.92 -9.26,-2.27 -19.46,0.17 -26.68,7.35 -5.57,5.54 -8.19,12.84 -8.05,20.11 1.6,1.6 14.43,14.35 16.04,15.94 1.58,-0.37 3.22,-0.56 4.82,-0.56 5.53,0 10.72,2.13 14.63,6.02 z m -46,-1.11 c -17.85,17.76 -27.78,27.63 -29.76,29.6 -4.88,4.86 -4.88,12.72 0,17.57 4.88,4.86 12.79,4.86 17.67,0 2.42,-2.4 21.73,-21.59 24.14,-23.99 -1.48,-3.86 -1.93,-8.08 -0.97,-12.17 -1.48,-1.47 -5.17,-5.14 -11.08,-11.01 z m -25.6,38.38 c 0,-2.58 2.09,-4.66 4.69,-4.66 2.59,0 4.68,2.08 4.68,4.66 0,2.56 -2.09,4.66 -4.68,4.66 -2.58,0 -4.69,-2.1 -4.69,-4.66 z" />
      </g>
    </g>
    <g
       id="g4223"
       transform="matrix(0.80823024,0,0,0.76128568,172.29466,97.510655)">
      <path
         inkscape:connector-curvature="0"
         id="path4221"
         style="opacity:1;fill:#ffffff;fill-opacity:1"
         d="m 107.93,245.9 c 0,3.05 -2.66,5.53 -5.93,5.53 -3.27,0 -5.93,-2.48 -5.93,-5.53 0,-3.05 2.66,-5.53 5.93,-5.53 3.27,0 5.93,2.48 5.93,5.53 z" />
    </g>
    <g
       id="g4227"
       transform="matrix(0.80823024,0,0,0.76128568,172.29466,97.510655)">
      <path
         inkscape:connector-curvature="0"
         id="path4225"
         style="opacity:1;fill:#ffffff;fill-opacity:1"
         d="m 96.07,246.9 h 11.86 v 5.53 H 96.07 Z" />
    </g>
    <rect
       id="rect536"
       width="93.544334"
       height="15.501633"
       x="59.025185"
       y="212.02776"
       style="fill:#64b549;fill-opacity:0;stroke-width:0.26458332" />
    <rect
       style="fill:#64b549;fill-opacity:0;stroke-width:0.26458332"
       id="rect5046"
       width="93.544327"
       height="15.501633"
       x="59.025185"
       y="212.02776"
       ry="2.8421709e-14" />
    <rect
       style="fill:#64b549;fill-opacity:0;stroke-width:0.26458332"
       id="rect5050"
       width="151.15901"
       height="14.351893"
       x="33.36731"
       y="209.35506"
       ry="2.8421808e-14" />
    <rect
       style="fill:#64b549;fill-opacity:0;stroke-width:0.26458332"
       id="rect5052"
       width="107.97688"
       height="5.3453865"
       x="59.025185"
       y="212.02776"
       ry="2.8421808e-14" />
    <rect
       style="fill:#64b549;fill-opacity:0;stroke-width:0.26458332"
       id="rect5054"
       width="129.89299"
       height="155.01633"
       x="-206.10619"
       y="81.065681"
       ry="2.8421808e-14" />
    <rect
       style="fill:#64b549;fill-opacity:0;stroke-width:0.26458332"
       id="rect5056"
       width="131.49661"
       height="90.871635"
       x="-207.70981"
       y="145.21037"
       ry="2.8421808e-14" />
    <rect
       style="fill:#64b549;fill-opacity:1;stroke-width:0.06888264"
       id="rect5058"
       width="74.142456"
       height="20.847017"
       x="62.243538"
       y="207.79448"
       ry="4.819349e-15" />
  </g>
</svg>
