<?xml version="1.0" encoding="UTF-8" standalone="no"?>
<svg
   xmlns:dc="http://purl.org/dc/elements/1.1/"
   xmlns:cc="http://creativecommons.org/ns#"
   xmlns:rdf="http://www.w3.org/1999/02/22-rdf-syntax-ns#"
   xmlns:svg="http://www.w3.org/2000/svg"
   xmlns="http://www.w3.org/2000/svg"
   xmlns:sodipodi="http://sodipodi.sourceforge.net/DTD/sodipodi-0.dtd"
   xmlns:inkscape="http://www.inkscape.org/namespaces/inkscape"
   viewBox="0 0 215 213.53999"
   version="1.1"
   id="svg4233"
   sodipodi:docname="untitled(1) (1).svg"
   width="215"
   height="213.53999"
   inkscape:version="0.92.4 (5da689c313, 2019-01-14)">
  <metadata
     id="metadata4239">
    <rdf:RDF>
      <cc:Work
         rdf:about="">
        <dc:format>image/svg+xml</dc:format>
        <dc:type
           rdf:resource="http://purl.org/dc/dcmitype/StillImage" />
        <dc:title></dc:title>
      </cc:Work>
    </rdf:RDF>
  </metadata>
  <defs
     id="defs4237" />
  <sodipodi:namedview
     pagecolor="#ffffff"
     bordercolor="#666666"
     borderopacity="1"
     objecttolerance="10"
     gridtolerance="10"
     guidetolerance="10"
     inkscape:pageopacity="0"
     inkscape:pageshadow="2"
     inkscape:window-width="1920"
     inkscape:window-height="997"
     id="namedview4235"
     showgrid="false"
     fit-margin-top="0"
     fit-margin-left="0"
     fit-margin-right="0"
     fit-margin-bottom="0"
     inkscape:zoom="0.36875"
     inkscape:cx="246"
     inkscape:cy="-67.57"
     inkscape:window-x="0"
     inkscape:window-y="0"
     inkscape:window-maximized="1"
     inkscape:current-layer="svg4233" />
  <g
     id="g4231"
     transform="translate(-74,-38.89)">
    <g
       id="g4229">
      <g
         id="g4187">
        <path
           d="m 172.22,61 c 0.19,0 0.34,0.15 0.34,0.34 0,0.08 0,-0.04 0,0.03 0,0.19 -0.15,0.35 -0.34,0.35 -0.48,0 -1.57,0 -2.05,0 -0.19,0 -0.34,-0.16 -0.34,-0.35 0,-0.07 0,0.05 0,-0.03 0,-0.19 0.15,-0.34 0.34,-0.34 0.48,0 1.57,0 2.05,0 z"
           id="path4185"
           inkscape:connector-curvature="0"
           style="opacity:1;fill:#2694af;fill-opacity:1" />
      </g>
      <g
         id="g4191">
        <path
           d="m 279.73,38.89 c 5.12,0 9.27,4.15 9.27,9.27 0,40.66 0,153.34 0,194 0,5.12 -4.15,9.27 -9.27,9.27 -41.15,0 -155.31,0 -196.45,0 -5.13,0 -9.28,-4.15 -9.28,-9.27 0,-40.66 0,-153.34 0,-194 0,-5.12 4.15,-9.27 9.28,-9.27 41.14,0 155.3,0 196.45,0 z"
           id="path4189"
           inkscape:connector-curvature="0"
           style="opacity:1;fill:#64b549;fill-opacity:1" />
      </g>
      <g
         id="g4199">
        <path
           d="m 260.27,59.49 c 5.41,0 9.8,4.39 9.8,9.8 0,30.93 0,113.91 0,144.84 0,5.42 -4.39,9.8 -9.8,9.8 -33.47,0 -124.07,0 -157.54,0 -5.41,0 -9.8,-4.38 -9.8,-9.8 0,-30.93 0,-113.91 0,-144.84 0,-5.41 4.39,-9.8 9.8,-9.8 33.47,0 124.07,0 157.54,0 z"
           id="path4193"
           inkscape:connector-curvature="0"
           style="opacity:1;fill:#f5f5f5;fill-opacity:1" />
        <g
           id="g4197">
          <path
             d="m 260.27,59.49 c 5.41,0 9.8,4.39 9.8,9.8 0,30.93 0,113.91 0,144.84 0,5.42 -4.39,9.8 -9.8,9.8 -33.47,0 -124.07,0 -157.54,0 -5.41,0 -9.8,-4.38 -9.8,-9.8 0,-30.93 0,-113.91 0,-144.84 0,-5.41 4.39,-9.8 9.8,-9.8 33.47,0 124.07,0 157.54,0 z"
             id="path4195"
             inkscape:connector-curvature="0"
             style="opacity:1;fill-opacity:0;stroke:#5a5a5a;stroke-width:5;stroke-opacity:1" />
        </g>
      </g>
      <g
         id="g4207">
        <path
           d="m 212.11,213.59 c 3.48,0 6.31,2.83 6.31,6.31 0,3.78 0,8.83 0,12.61 0,3.48 -2.83,6.31 -6.31,6.31 -14.71,0 -52.53,0 -67.24,0 -3.49,0 -6.31,-2.83 -6.31,-6.31 0,-3.78 0,-8.83 0,-12.61 0,-3.48 2.82,-6.31 6.31,-6.31 14.71,0 52.53,0 67.24,0 z"
           id="path4201"
           inkscape:connector-curvature="0"
           style="opacity:1;fill:#64b549;fill-opacity:1" />
        <g
           id="g4205">
          <path
             d="m 212.11,213.59 c 3.48,0 6.31,2.83 6.31,6.31 0,3.78 0,8.83 0,12.61 0,3.48 -2.83,6.31 -6.31,6.31 -14.71,0 -52.53,0 -67.24,0 -3.49,0 -6.31,-2.83 -6.31,-6.31 0,-3.78 0,-8.83 0,-12.61 0,-3.48 2.82,-6.31 6.31,-6.31 14.71,0 52.53,0 67.24,0 z"
             id="path4203"
             inkscape:connector-curvature="0"
             style="opacity:1;fill-opacity:0;stroke:#5a5a5a;stroke-width:5;stroke-opacity:1" />
        </g>
      </g>
      <g
         id="g4211">
        <path
           d="m 88.09,226.21 h 195.56 v 25.22 H 88.09 Z"
           id="path4209"
           inkscape:connector-curvature="0"
           style="opacity:1;fill:#64b549;fill-opacity:1" />
      </g>
      <g
         id="g4219">
        <path
           d="m 203.49,143.53 c -4.51,-4.48 -11.25,-5.35 -16.68,-2.69 -1.38,-1.38 -8.32,-8.28 -20.81,-20.7 v -12.05 l -25,-18.64 -12.5,12.43 18.75,24.84 h 12.12 c 12.5,12.42 19.44,19.32 20.82,20.7 -2.65,5.39 -1.79,12.09 2.72,16.57 2.29,2.28 20.58,20.46 22.87,22.74 2.85,2.83 7.46,2.83 10.29,0 1.03,-1.03 9.26,-9.21 10.29,-10.23 2.84,-2.84 2.84,-7.42 0,-10.23 -4.57,-4.55 -20.58,-20.46 -22.87,-22.74 z m 4.42,-4.38 c 0.38,0.37 3.41,3.39 3.79,3.76 3.08,-1.34 6.01,-3.2 8.55,-5.72 7.25,-7.21 9.71,-17.34 7.4,-26.54 -0.43,-1.75 -2.63,-2.35 -3.92,-1.07 -0.97,0.97 -5.82,5.78 -14.53,14.45 l -13.26,-2.2 -2.21,-13.18 c 8.72,-8.67 13.56,-13.48 14.53,-14.44 1.29,-1.28 0.66,-3.48 -1.11,-3.92 -9.26,-2.27 -19.46,0.17 -26.68,7.35 -5.57,5.54 -8.19,12.84 -8.05,20.11 1.6,1.6 14.43,14.35 16.04,15.94 1.58,-0.37 3.22,-0.56 4.82,-0.56 5.53,0 10.72,2.13 14.63,6.02 z m -46,-1.11 c -17.85,17.76 -27.78,27.63 -29.76,29.6 -4.88,4.86 -4.88,12.72 0,17.57 4.88,4.86 12.79,4.86 17.67,0 2.42,-2.4 21.73,-21.59 24.14,-23.99 -1.48,-3.86 -1.93,-8.08 -0.97,-12.17 -1.48,-1.47 -5.17,-5.14 -11.08,-11.01 z m -25.6,38.38 c 0,-2.58 2.09,-4.66 4.69,-4.66 2.59,0 4.68,2.08 4.68,4.66 0,2.56 -2.09,4.66 -4.68,4.66 -2.58,0 -4.69,-2.1 -4.69,-4.66 z"
           id="path4213"
           inkscape:connector-curvature="0"
           style="opacity:1;fill:#000000;fill-opacity:1" />
        <g
           id="g4217">
          <path
             d="m 203.49,143.53 c -4.51,-4.48 -11.25,-5.35 -16.68,-2.69 -1.38,-1.38 -8.32,-8.28 -20.81,-20.7 v -12.05 l -25,-18.64 -12.5,12.43 18.75,24.84 h 12.12 c 12.5,12.42 19.44,19.32 20.82,20.7 -2.65,5.39 -1.79,12.09 2.72,16.57 2.29,2.28 20.58,20.46 22.87,22.74 2.85,2.83 7.46,2.83 10.29,0 1.03,-1.03 9.26,-9.21 10.29,-10.23 2.84,-2.84 2.84,-7.42 0,-10.23 -4.57,-4.55 -20.58,-20.46 -22.87,-22.74 z m 4.42,-4.38 c 0.38,0.37 3.41,3.39 3.79,3.76 3.08,-1.34 6.01,-3.2 8.55,-5.72 7.25,-7.21 9.71,-17.34 7.4,-26.54 -0.43,-1.75 -2.63,-2.35 -3.92,-1.07 -0.97,0.97 -5.82,5.78 -14.53,14.45 l -13.26,-2.2 -2.21,-13.18 c 8.72,-8.67 13.56,-13.48 14.53,-14.44 1.29,-1.28 0.66,-3.48 -1.11,-3.92 -9.26,-2.27 -19.46,0.17 -26.68,7.35 -5.57,5.54 -8.19,12.84 -8.05,20.11 1.6,1.6 14.43,14.35 16.04,15.94 1.58,-0.37 3.22,-0.56 4.82,-0.56 5.53,0 10.72,2.13 14.63,6.02 z m -46,-1.11 c -17.85,17.76 -27.78,27.63 -29.76,29.6 -4.88,4.86 -4.88,12.72 0,17.57 4.88,4.86 12.79,4.86 17.67,0 2.42,-2.4 21.73,-21.59 24.14,-23.99 -1.48,-3.86 -1.93,-8.08 -0.97,-12.17 -1.48,-1.47 -5.17,-5.14 -11.08,-11.01 z m -25.6,38.38 c 0,-2.58 2.09,-4.66 4.69,-4.66 2.59,0 4.68,2.08 4.68,4.66 0,2.56 -2.09,4.66 -4.68,4.66 -2.58,0 -4.69,-2.1 -4.69,-4.66 z"
             id="path4215"
             inkscape:connector-curvature="0"
             style="opacity:1;fill-opacity:0;stroke:#000000;stroke-width:1;stroke-opacity:0" />
        </g>
      </g>
      <g
         id="g4223">
        <path
           d="m 107.93,245.9 c 0,3.05 -2.66,5.53 -5.93,5.53 -3.27,0 -5.93,-2.48 -5.93,-5.53 0,-3.05 2.66,-5.53 5.93,-5.53 3.27,0 5.93,2.48 5.93,5.53 z"
           style="opacity:1;fill:#ffffff;fill-opacity:1"
           id="path4221"
           inkscape:connector-curvature="0" />
      </g>
      <g
         id="g4227">
        <path
           d="m 96.07,246.9 h 11.86 v 5.53 H 96.07 Z"
           style="opacity:1;fill:#ffffff;fill-opacity:1"
           id="path4225"
           inkscape:connector-curvature="0" />
      </g>
    </g>
  </g>
</svg>
